Coordinates
version=1
nRows=25
nColumns=24
inDegrees=yes

Units are S.I. units (second, meters, Newtons, ...)
If the header above contains a line with 'inDegrees', this indicates whether rotational values are in degrees (yes) or radians (no).

endheader
time	pelvis_tilt	pelvis_list	pelvis_rotation	pelvis_tx	pelvis_ty	pelvis_tz	hip_flexion_r	hip_adduction_r	hip_rotation_r	knee_angle_r	ankle_angle_r	subtalar_angle_r	mtp_angle_r	hip_flexion_l	hip_adduction_l	hip_rotation_l	knee_angle_l	ankle_angle_l	subtalar_angle_l	mtp_angle_l	lumbar_extension	lumbar_bending	lumbar_rotation
1.350000	10.761265	2.721308	-179.520455	0.325435	0.499897	-1.209106	82.015476	-29.732107	-7.153462	-113.220846	38.723519	7.685742	0.000000	86.793171	-32.504667	0.852960	-113.177184	39.112555	16.389625	0.000000	-12.010570	2.592665	1.434792
1.355000	10.732954	2.788214	-179.517793	0.325693	0.498126	-1.209258	82.167186	-29.676035	-6.914179	-113.440137	39.153686	8.447081	0.000000	87.127009	-32.518629	1.129668	-113.481219	39.154706	16.384138	0.000000	-12.101375	2.651393	1.479527
1.360000	10.608533	2.806195	-179.452344	0.325892	0.496358	-1.209218	82.358479	-29.772797	-6.983950	-113.870652	38.872788	7.551061	0.000000	87.329255	-32.465597	1.335526	-113.807205	39.190224	16.377589	0.000000	-12.289258	2.650938	1.518020
1.365000	10.566985	2.856735	-179.415184	0.326082	0.494696	-1.209289	82.467190	-29.759214	-6.737825	-114.069683	39.292187	8.333413	0.000000	87.607804	-32.444837	1.571435	-114.086138	39.248624	16.431214	0.000000	-12.392194	2.702598	1.502179
1.370000	10.477083	2.873436	-179.346997	0.326281	0.493147	-1.209496	82.643313	-29.822434	-6.833646	-114.444601	39.002312	7.461734	0.000000	87.801111	-32.406023	1.769123	-114.331780	39.303667	16.509161	0.000000	-12.553312	2.690400	1.470351
1.375000	10.465410	2.923544	-179.284029	0.326430	0.491676	-1.209585	82.739785	-29.813714	-6.585650	-114.599515	39.452513	8.295654	0.000000	88.077070	-32.358300	1.984370	-114.560878	39.340024	16.541694	0.000000	-12.619164	2.763021	1.396598
1.380000	10.334489	2.963036	-179.203111	0.326588	0.490184	-1.209675	82.861697	-29.897692	-6.711560	-114.981521	39.166174	7.428842	0.000000	88.252829	-32.306544	2.203479	-114.820507	39.388373	16.575488	0.000000	-12.801789	2.752997	1.445856
1.385000	10.303831	3.006197	-179.169094	0.326769	0.488745	-1.209779	82.973312	-29.880033	-6.476080	-115.156933	39.588697	8.174776	0.000000	88.513784	-32.287831	2.415934	-115.057135	39.409941	16.576951	0.000000	-12.877552	2.777093	1.514534
1.390000	10.194674	3.043550	-179.104043	0.326844	0.487428	-1.209852	83.091557	-29.949624	-6.596484	-115.508984	39.304031	7.310384	0.000000	88.672348	-32.262411	2.605344	-115.298926	39.458094	16.629785	0.000000	-13.041419	2.804988	1.487503
1.395000	10.158757	3.073551	-179.056091	0.327039	0.486091	-1.209890	83.177734	-29.943392	-6.346941	-115.652124	39.722489	8.065090	0.000000	88.891036	-32.220786	2.771573	-115.502706	39.482215	16.662365	0.000000	-13.123894	2.835491	1.492927
1.400000	10.061813	3.067955	-178.986406	0.327163	0.484806	-1.209982	83.324547	-30.016958	-6.422610	-115.985096	39.398678	7.236060	0.000000	89.015904	-32.186374	2.890958	-115.711951	39.529134	16.719914	0.000000	-13.275594	2.819525	1.429712
1.405000	10.003572	3.104978	-178.928619	0.327256	0.483602	-1.209974	83.363838	-30.024177	-6.190889	-116.122409	39.805652	7.992721	0.000000	89.197884	-32.149321	3.057427	-115.919843	39.560380	16.757063	0.000000	-13.390165	2.824416	1.498750
1.410000	9.885860	3.010142	-178.870866	0.327333	0.482448	-1.209861	83.559186	-30.133123	-6.144519	-116.454002	39.509110	7.180786	0.000000	89.415701	-32.019380	3.634577	-115.942631	39.102387	17.625968	0.000000	-13.554639	2.762442	1.376050
1.415000	9.834938	3.159880	-178.852697	0.327506	0.481314	-1.210171	83.526009	-30.036492	-6.085111	-116.577458	39.899417	7.830748	0.000000	89.500595	-32.138378	3.376625	-116.319976	39.591746	16.793993	0.000000	-13.662280	2.878021	1.455335
1.420000	9.750553	3.148357	-178.771514	0.327594	0.480263	-1.210245	83.656929	-30.126434	-6.166420	-116.871572	39.613203	7.017408	0.000000	89.603861	-32.089078	3.489647	-116.481479	39.621994	16.889503	0.000000	-13.794921	2.860938	1.400093
1.425000	9.723170	3.137585	-178.699478	0.327709	0.479257	-1.210317	83.769103	-30.175424	-6.078709	-117.046296	39.665310	7.006796	0.000000	89.740389	-32.037260	3.569027	-116.621783	39.650483	16.935488	0.000000	-13.874128	2.854425	1.308350
1.430000	9.637700	3.128865	-178.648118	0.327889	0.478185	-1.210469	83.853592	-30.193338	-5.984075	-117.248895	39.706611	6.977893	0.000000	89.845704	-32.014440	3.673228	-116.785525	39.664649	16.971337	0.000000	-14.016788	2.817832	1.326081
1.435000	9.583307	3.124257	-178.607849	0.327963	0.477245	-1.210554	83.947803	-30.215223	-5.909670	-117.440096	39.745948	6.936203	0.000000	89.951600	-32.005686	3.762480	-116.936641	39.684816	17.003392	0.000000	-14.125895	2.782736	1.367355
1.440000	9.518567	3.128004	-178.580747	0.328043	0.476276	-1.210534	84.040633	-30.242487	-5.842335	-117.632779	39.776066	6.844237	0.000000	90.062991	-32.006785	3.855370	-117.122681	39.719590	17.055026	0.000000	-14.221724	2.809128	1.306957
1.445000	9.468976	3.128062	-178.543382	0.328105	0.475370	-1.210580	84.126074	-30.261575	-5.748864	-117.807553	39.811997	6.838889	0.000000	90.174455	-31.993568	3.947590	-117.279790	39.722574	17.070467	0.000000	-14.314188	2.777730	1.392327
1.450000	9.433325	3.114019	-178.505484	0.328267	0.474458	-1.210774	84.235522	-30.276435	-5.693472	-117.972291	39.845127	6.769408	0.000000	90.298985	-32.000944	4.016323	-117.406180	39.716973	17.135310	0.000000	-14.403767	2.776502	1.252046
1.455000	9.417784	3.081102	-178.454499	0.328421	0.473591	-1.210889	84.335197	-30.282346	-5.451269	-118.089805	40.047834	7.290341	0.000000	90.409332	-31.966127	4.061693	-117.514614	39.754868	17.266879	0.000000	-14.457163	2.723046	1.277346
1.460000	9.373056	3.076424	-178.425824	0.328515	0.472820	-1.211020	84.409057	-30.279092	-5.372874	-118.235579	40.112872	7.269996	0.000000	90.506299	-31.968452	4.133652	-117.636008	39.771160	17.277492	0.000000	-14.554625	2.708462	1.265876
1.465000	9.370572	3.065053	-178.411714	0.328606	0.472021	-1.211096	84.523925	-30.261201	-5.221050	-118.357248	40.286134	7.454152	0.000000	90.645429	-31.982185	4.190178	-117.772572	39.768231	17.320228	0.000000	-14.581069	2.683110	1.311726
1.470000	9.321342	3.077554	-178.384222	0.328662	0.471309	-1.211120	84.629482	-30.313154	-5.377872	-118.555378	39.988740	6.649543	0.000000	90.738602	-31.974655	4.276920	-117.906685	39.779337	17.344816	0.000000	-14.675798	2.706445	1.317075
